<?xml version="1.0" encoding="utf-8"?>
<!-- Svg Vector Icons : http://www.onlinewebfonts.com/icon -->
<!DOCTYPE svg PUBLIC "-//W3C//DTD SVG 1.1//EN" "http://www.w3.org/Graphics/SVG/1.1/DTD/svg11.dtd">
<svg version="1.1" xmlns="http://www.w3.org/2000/svg" xmlns:xlink="http://www.w3.org/1999/xlink" x="0px" y="0px" viewBox="0 0 256 256" enable-background="new 0 0 256 256" xml:space="preserve">
<metadata> Svg Vector Icons : http://www.onlinewebfonts.com/icon </metadata>
<g><g><path fill="#000000" d="M10,43.7c0-4.6,3.7-8.4,8.4-8.4h219.2c4.6,0,8.4,3.9,8.4,8.4c0,4.6-3.7,8.4-8.4,8.4H18.4C13.8,52.1,10,48.2,10,43.7L10,43.7z M10,128c0-4.6,3.7-8.4,8.4-8.4h219.2c4.6,0,8.4,3.9,8.4,8.4c0,4.6-3.7,8.4-8.4,8.4H18.4C13.8,136.4,10,132.5,10,128L10,128z M10,212.3c0-4.6,3.7-8.4,8.4-8.4h219.2c4.6,0,8.4,3.9,8.4,8.4c0,4.6-3.7,8.4-8.4,8.4H18.4C13.8,220.7,10,216.8,10,212.3L10,212.3z"/></g></g>
</svg>